<svg id="logo-b.svg" xmlns="http://www.w3.org/2000/svg" xmlns:xlink="http://www.w3.org/1999/xlink" width="320" height="55.778" viewBox="0 0 320 55.778">
  <defs>
    <clipPath id="clip-path">
      <rect id="長方形_164" data-name="長方形 164" width="320" height="55.778" fill="none"/>
    </clipPath>
  </defs>
  <g id="グループ_10" data-name="グループ 10">
    <g id="グループ_9" data-name="グループ 9" clip-path="url(#clip-path)">
      <path id="パス_222" data-name="パス 222" d="M55.392,27.946A27.446,27.446,0,1,1,27.946.5,27.446,27.446,0,0,1,55.392,27.946" transform="translate(-0.057 -0.057)" fill="#fff"/>
      <path id="楕円形_23" data-name="楕円形 23" d="M27.446-.5A27.953,27.953,0,0,1,38.324,53.2,27.953,27.953,0,0,1,16.568,1.7,27.772,27.772,0,0,1,27.446-.5Zm0,54.892A26.953,26.953,0,0,0,37.935,2.617,26.953,26.953,0,0,0,16.958,52.275,26.777,26.777,0,0,0,27.446,54.392Z" transform="translate(0.443 0.443)"/>
      <path id="パス_223" data-name="パス 223" d="M52.833,28.327A24.507,24.507,0,1,1,28.327,3.82,24.507,24.507,0,0,1,52.833,28.327" transform="translate(-0.438 -0.438)"/>
      <path id="楕円形_24" data-name="楕円形 24" d="M24.507-.5a25.013,25.013,0,0,1,9.734,48.048A25.013,25.013,0,0,1,14.773,1.465,24.851,24.851,0,0,1,24.507-.5Zm0,49.013A24.013,24.013,0,0,0,33.851,2.386,24.013,24.013,0,0,0,15.162,46.627,23.856,23.856,0,0,0,24.507,48.513Z" transform="translate(3.382 3.382)"/>
      <path id="パス_224" data-name="パス 224" d="M82.5,15.268l-2.634,9.684H94.95s-5.5,13.51-19.416,15.51c-.25,1.084-1.968,10.624-1.968,10.624S93,50.148,100,36.461a22.367,22.367,0,0,0,19.673,14.931c1.249-4.082,3.69-10.607,3.69-10.607S110.532,38.264,110.532,25.1c5.666,0,15.165.021,15.165.021l2.583-9.666H110.532a38.594,38.594,0,0,1,2.583-9.416H101.283a38.323,38.323,0,0,0-2.166,9.249c-2.668.015-16.616-.019-16.616-.019" transform="translate(-8.434 -0.692)"/>
      <path id="パス_225" data-name="パス 225" d="M160.693,6.036H142.361L131.7,51.392h7.083l1.666-5.775s8.728-1.4,12.333-6.125c3.881-5.083,2.591-10.366,2.291-12.708.75-.916,5.249-7.958,5.625-20.748m-13.5,20.5c.5,1,4.25,9.916-4.667,9.916l5.5-22.832h4.75s-1.084,8.416-5.583,12.916" transform="translate(-15.098 -0.692)"/>
      <path id="パス_226" data-name="パス 226" d="M188.393,15.536a58.633,58.633,0,0,0,2.916-9.5H166.062S162.74,36.992,150.9,42.429v8.963s9.494-2.443,14.243-14.942a20.059,20.059,0,0,0,2.917,4.334s-1.5,1.666-6.5,3.5c-.333,3-1.025,7.109-1.025,7.109a18.308,18.308,0,0,0,11.109-4.442c1.083,1.083,4.64,3.807,6.5,4.442,1.166-2.609,3.916-8.692,3.916-8.692a18.566,18.566,0,0,1-3.5-3,44.311,44.311,0,0,0,9.833-20.5H171.106s.662-2.144,1.039-3.667ZM178.311,26.619s-1.749,5.083-4.333,7.333a58.535,58.535,0,0,1-4.333-7.333Z" transform="translate(-17.3 -0.692)"/>
      <path id="パス_227" data-name="パス 227" d="M203.89,6.036s-1.749,6.5-3.583,11.582h19.165s1.333-3.749,3.333-11.249c-7.166,0-18.916-.333-18.916-.333" transform="translate(-22.964 -0.692)"/>
      <path id="パス_228" data-name="パス 228" d="M258.384,6.7s-1.749,6.5-3.583,11.582h42.163S298.3,14.528,300.3,7.028c-7.166,0-41.914-.333-41.914-.333" transform="translate(-29.211 -0.768)"/>
      <path id="パス_229" data-name="パス 229" d="M253.3,25.321s-1.749,6.5-3.583,11.582h42.163s1.333-3.749,3.333-11.249c-7.166,0-41.914-.333-41.914-.333" transform="translate(-28.628 -2.903)"/>
      <path id="パス_230" data-name="パス 230" d="M248.125,43.947s-1.749,6.5-3.583,11.582h42.163s1.333-3.749,3.333-11.249c-7.166,0-41.914-.333-41.914-.333" transform="translate(-28.035 -5.038)"/>
      <path id="パス_231" data-name="パス 231" d="M198.808,23.919s-1.749,6.5-3.583,11.582H214.39s1.333-3.749,3.333-11.249c-7.166,0-18.916-.333-18.916-.333" transform="translate(-22.381 -2.742)"/>
      <path id="パス_232" data-name="パス 232" d="M241.128,17.331H230.795s-3.416,21-15.666,23.5H193.381s-1.75,6.75-3.333,10.666h24.5s22.748,2.75,26.581-34.164" transform="translate(-21.788 -1.987)"/>
      <path id="パス_233" data-name="パス 233" d="M312.675,6.7l-3.916,11.166h24s-10.082,12.548-30,21.814c-.75,3.6-2.5,11.583-2.5,11.583s11.332-1.15,27.831-13.482c1.25,4.416,4,13.482,4,13.482h11.583s-3.834-15.565-5.917-21.481c2.166-2.917,13.666-16.416,16.666-23.082Z" transform="translate(-34.423 -0.768)"/>
      <path id="パス_234" data-name="パス 234" d="M344.075,12.273a4.166,4.166,0,1,1-4.166-4.166,4.167,4.167,0,0,1,4.166,4.166" transform="translate(-38.49 -0.929)" fill="#fff"/>
      <path id="パス_235" data-name="パス 235" d="M354.051,12.273a4.167,4.167,0,1,1-4.167-4.166,4.167,4.167,0,0,1,4.167,4.166" transform="translate(-39.634 -0.929)" fill="#fff"/>
    </g>
  </g>
  <g id="グループ_12" data-name="グループ 12">
    <g id="グループ_11" data-name="グループ 11" clip-path="url(#clip-path)">
      <path id="パス_236" data-name="パス 236" d="M14.719,28.8a3.042,3.042,0,1,1-3.04-3.041,3.041,3.041,0,0,1,3.04,3.041" transform="translate(-0.99 -2.953)" fill="red"/>
      <path id="パス_237" data-name="パス 237" d="M34.3,21.925a3.042,3.042,0,1,1-3.041-3.041A3.041,3.041,0,0,1,34.3,21.925" transform="translate(-3.234 -2.165)" fill="#fff"/>
      <path id="パス_238" data-name="パス 238" d="M53.872,28.8a3.042,3.042,0,1,1-3.041-3.041A3.041,3.041,0,0,1,53.872,28.8" transform="translate(-5.479 -2.953)" fill="#069fef"/>
      <path id="パス_239" data-name="パス 239" d="M4.583,33.643s5.5-.333,6.583-.833a20.38,20.38,0,0,0,3.5-3.133s.917-.867.917-1.533a64.829,64.829,0,0,0,0-7c-.251-1.583-.834-5-.834-5a12.968,12.968,0,0,1-.541-2.666c.125-.334.208-.583.541-.667s1,.458,1.125,1.124,2.458,9.708,2.667,11.416S20.832,34.144,21,34.685s1.458,5.084,1.625,5.5.5,1.167.5,1.167,1.292,2.708,1.417,3.083.875,2.583.875,2.833.375,5.688.375,6.062c-1.458,0-5.292-.521-5.292-.521L17,50.767a11.243,11.243,0,0,0,.375-5.208,12.81,12.81,0,0,0-2.208-5.333c-.886-1.4-2.25-3.458-3.5-4.082-.734-.367-5.375-.5-6.792-.375-.667-.208-1.041-1.708-.291-2.125" transform="translate(-0.478 -1.468)" fill="red"/>
      <path id="パス_240" data-name="パス 240" d="M56.047,33.628s-5.255-.318-6.338-.817a20.38,20.38,0,0,1-3.5-3.133s-.916-.867-.916-1.533a64.6,64.6,0,0,1,0-7c.25-1.583.833-5,.833-5a13.019,13.019,0,0,0,.542-2.667c-.126-.333-.209-.583-.542-.667s-1,.459-1.125,1.125-2.458,9.708-2.666,11.416-2.292,8.791-2.459,9.333-1.458,5.083-1.625,5.5-.5,1.167-.5,1.167-1.292,2.707-1.417,3.083-.875,2.583-.875,2.833-.375,5.687-.375,6.062c1.458,0,5.292-.521,5.292-.521l3.5-2.042A11.257,11.257,0,0,1,43.5,45.56a12.8,12.8,0,0,1,2.208-5.333c.886-1.4,2.25-3.458,3.5-4.083.734-.367,5-.524,6.418-.4.24-.134.894-1.872.421-2.117" transform="translate(-4.022 -1.468)" fill="#069fef"/>
      <path id="パス_241" data-name="パス 241" d="M26.521,53.285s-.365-12.146-.448-13.311-.282-7.968-1.3-10.654c-.982-2.581-2.833-10.366-3-11.116s-1.833-6.5-2-6.916-.26-1.5.177-1.594,1.094.688,1.344,1.376,2.531,6.406,2.531,6.406,3.343,7.249,3.406,7.343,6.281.031,6.281.031,3.187-6.479,3.375-7.021,2.437-6.541,2.5-6.791.625-1.093,1-.969.531.75.437,1.408-2.031,6.874-2.031,6.874-3.305,10.541-3.406,10.97c-.625,2.654-1.213,9.367-1.344,10.747-.027.282-.375,13.218-.375,13.218Z" transform="translate(-2.251 -1.11)" fill="#fbfcfc"/>
      <path id="楕円形_25" data-name="楕円形 25" d="M24.507-.5a25.013,25.013,0,0,1,9.734,48.048A25.013,25.013,0,0,1,14.773,1.465,24.851,24.851,0,0,1,24.507-.5Zm0,49.013A24.013,24.013,0,0,0,33.851,2.386,24.013,24.013,0,0,0,15.162,46.627,23.856,23.856,0,0,0,24.507,48.513Z" transform="translate(3.382 3.382)"/>
    </g>
  </g>
</svg>
