<svg id="logo-w.svg" xmlns="http://www.w3.org/2000/svg" xmlns:xlink="http://www.w3.org/1999/xlink" width="320.056" height="55.892" viewBox="0 0 320.056 55.892">
  <defs>
    <clipPath id="clip-path">
      <rect id="長方形_257" data-name="長方形 257" width="320.056" height="55.892" fill="none"/>
    </clipPath>
  </defs>
  <g id="グループ_54" data-name="グループ 54" clip-path="url(#clip-path)">
    <path id="パス_409" data-name="パス 409" d="M55.392,27.946A27.446,27.446,0,1,1,27.946.5,27.446,27.446,0,0,1,55.392,27.946" fill="#fff"/>
    <path id="楕円形_55" data-name="楕円形 55" d="M27.446-.5A27.953,27.953,0,0,1,38.324,53.2,27.953,27.953,0,0,1,16.568,1.7,27.772,27.772,0,0,1,27.446-.5Zm0,54.892A26.953,26.953,0,0,0,37.934,2.617,26.953,26.953,0,0,0,16.958,52.275,26.777,26.777,0,0,0,27.446,54.392Z" transform="translate(0.5 0.5)"/>
    <path id="パス_410" data-name="パス 410" d="M52.452,27.946A24.507,24.507,0,1,1,27.945,3.439h0A24.508,24.508,0,0,1,52.452,27.946"/>
    <path id="楕円形_56" data-name="楕円形 56" d="M24.507-.5a25.013,25.013,0,0,1,9.734,48.049A25.013,25.013,0,0,1,14.773,1.465,24.851,24.851,0,0,1,24.507-.5Zm0,49.014A24.013,24.013,0,0,0,33.851,2.386,24.013,24.013,0,0,0,15.163,46.628,23.856,23.856,0,0,0,24.507,48.514Z" transform="translate(3.439 3.439)"/>
    <path id="パス_411" data-name="パス 411" d="M74.123,14.633l-2.634,9.684H86.573s-5.5,13.51-19.416,15.51c-.25,1.084-1.968,10.624-1.968,10.624s19.434-.938,26.434-14.625A22.367,22.367,0,0,0,111.3,50.757c1.249-4.082,3.69-10.607,3.69-10.607s-12.831-2.521-12.831-15.685c5.666,0,15.165.021,15.165.021L119.9,14.82H102.155A38.614,38.614,0,0,1,104.738,5.4H92.906a38.326,38.326,0,0,0-2.166,9.249c-2.668.015-16.616-.019-16.616-.019" fill="#fff"/>
    <path id="パス_412" data-name="パス 412" d="M145.652,5.4H127.32L116.659,50.757h7.083l1.666-5.775s8.728-1.4,12.333-6.125c3.881-5.083,2.591-10.366,2.291-12.708.75-.916,5.249-7.958,5.625-20.748m-13.5,20.5c.5,1,4.25,9.916-4.667,9.916l5.5-22.832h4.75S136.656,21.4,132.157,25.9" fill="#fff"/>
    <path id="パス_413" data-name="パス 413" d="M171.15,14.9a58.6,58.6,0,0,0,2.916-9.5H148.819S145.5,36.357,133.657,41.795v8.963s9.494-2.443,14.243-14.942a20.038,20.038,0,0,0,2.917,4.334s-1.5,1.666-6.5,3.5c-.333,3-1.025,7.109-1.025,7.109A18.309,18.309,0,0,0,154.4,46.317c1.083,1.083,4.64,3.807,6.5,4.442,1.166-2.609,3.916-8.692,3.916-8.692a18.535,18.535,0,0,1-3.5-3,44.312,44.312,0,0,0,9.833-20.5H153.863s.662-2.144,1.039-3.667ZM161.068,25.984s-1.749,5.083-4.333,7.333a58.464,58.464,0,0,1-4.333-7.333Z" fill="#fff"/>
    <path id="パス_414" data-name="パス 414" d="M180.983,5.4s-1.749,6.5-3.583,11.582h19.165S197.9,13.234,199.9,5.734c-7.166,0-18.916-.333-18.916-.333" fill="#fff"/>
    <path id="パス_415" data-name="パス 415" d="M229.23,5.989s-1.749,6.5-3.583,11.582H267.81s1.336-3.754,3.336-11.254c-7.166,0-41.914-.333-41.914-.333" fill="#fff"/>
    <path id="パス_416" data-name="パス 416" d="M224.729,22.475s-1.749,6.5-3.583,11.582h42.163s1.333-3.749,3.333-11.249c-7.166,0-41.914-.333-41.914-.333" fill="#fff"/>
    <path id="パス_417" data-name="パス 417" d="M220.147,38.966s-1.749,6.5-3.583,11.582h42.163S260.06,46.8,262.06,39.3c-7.166,0-41.914-.333-41.914-.333" fill="#fff"/>
    <path id="パス_418" data-name="パス 418" d="M176.484,21.234s-1.749,6.5-3.583,11.582h19.165s1.333-3.749,3.333-11.249c-7.166,0-18.916-.333-18.916-.333" fill="#fff"/>
    <path id="パス_419" data-name="パス 419" d="M219.4,15.4H209.064s-3.416,21-15.665,23.5H171.65s-1.75,6.75-3.333,10.666h24.5S215.565,52.317,219.4,15.4" fill="#fff"/>
    <path id="パス_420" data-name="パス 420" d="M320.056,5.989H278.309l-3.916,11.166h24s-10.082,12.548-30,21.814c-.75,3.6-2.5,11.583-2.5,11.583s11.332-1.15,27.831-13.482c1.25,4.416,4,13.482,4,13.482h11.583s-3.834-15.565-5.917-21.481c2.166-2.917,13.666-16.416,16.666-23.082m-9.75,1.246h0A4.167,4.167,0,1,1,306.14,11.4a4.167,4.167,0,0,1,4.167-4.168m-13,4.166a4.166,4.166,0,1,1,4.166,4.166A4.167,4.167,0,0,1,297.31,11.4" fill="#fff"/>
    <path id="パス_421" data-name="パス 421" d="M13.786,25.9a3.042,3.042,0,1,1-3.043-3.041h0a3.041,3.041,0,0,1,3.04,3.041" fill="red"/>
    <path id="パス_422" data-name="パス 422" d="M31.123,19.817a3.042,3.042,0,1,1-3.043-3.041h0a3.041,3.041,0,0,1,3.041,3.041" fill="#fff"/>
    <path id="パス_423" data-name="パス 423" d="M48.45,25.9a3.042,3.042,0,1,1-3.043-3.041h0A3.041,3.041,0,0,1,48.45,25.9" fill="#069fef"/>
    <path id="パス_424" data-name="パス 424" d="M4.162,32.232s5.5-.333,6.583-.833a20.354,20.354,0,0,0,3.5-3.133s.917-.867.917-1.533a64.862,64.862,0,0,0,0-7c-.251-1.583-.834-5-.834-5a12.963,12.963,0,0,1-.541-2.666c.125-.334.208-.583.541-.667s1,.458,1.125,1.124,2.458,9.708,2.667,11.416,2.291,8.793,2.459,9.334,1.458,5.084,1.625,5.5.5,1.167.5,1.167S24,42.649,24.121,43.024,25,45.607,25,45.857s.375,5.688.375,6.062c-1.458,0-5.292-.521-5.292-.521l-3.5-2.042a11.249,11.249,0,0,0,.375-5.208,12.821,12.821,0,0,0-2.208-5.333c-.886-1.4-2.25-3.458-3.5-4.082-.734-.367-5.375-.5-6.792-.375-.667-.208-1.041-1.708-.291-2.125" fill="red"/>
    <path id="パス_425" data-name="パス 425" d="M52.082,32.217s-5.255-.318-6.338-.817a20.354,20.354,0,0,1-3.5-3.133s-.916-.867-.916-1.533a64.353,64.353,0,0,1,0-7c.25-1.583.833-5,.833-5a13.054,13.054,0,0,0,.542-2.667c-.126-.333-.209-.583-.542-.667s-1,.459-1.125,1.125-2.458,9.708-2.666,11.416-2.292,8.791-2.459,9.333-1.458,5.083-1.625,5.5-.5,1.167-.5,1.167-1.292,2.707-1.417,3.083-.875,2.583-.875,2.833-.375,5.687-.375,6.062c1.458,0,5.292-.521,5.292-.521l3.5-2.042a11.258,11.258,0,0,1-.376-5.207,12.8,12.8,0,0,1,2.208-5.333c.886-1.4,2.25-3.458,3.5-4.083.734-.367,5-.524,6.418-.4.24-.134.894-1.872.421-2.117" fill="#069fef"/>
    <path id="パス_426" data-name="パス 426" d="M24.327,52.232s-.365-12.146-.448-13.311-.282-7.968-1.3-10.654c-.982-2.581-2.833-10.366-3-11.116s-1.833-6.5-2-6.916-.26-1.5.177-1.594,1.094.688,1.344,1.376,2.531,6.406,2.531,6.406,3.343,7.249,3.406,7.343,6.281.031,6.281.031,3.187-6.479,3.375-7.021,2.437-6.541,2.5-6.791.625-1.093,1-.969.531.75.437,1.408S36.6,17.3,36.6,17.3s-3.305,10.541-3.406,10.97c-.625,2.654-1.213,9.367-1.344,10.747-.027.282-.375,13.218-.375,13.218Z" fill="#fbfcfc"/>
    <path id="楕円形_57" data-name="楕円形 57" d="M24.507-.5a25.013,25.013,0,0,1,9.734,48.049A25.013,25.013,0,0,1,14.773,1.465,24.851,24.851,0,0,1,24.507-.5Zm0,49.014A24.013,24.013,0,0,0,33.851,2.386,24.013,24.013,0,0,0,15.163,46.628,23.856,23.856,0,0,0,24.507,48.514Z" transform="translate(3.439 3.439)"/>
  </g>
</svg>
